<svg width="17" height="18" viewBox="0 0 17 18" fill="none" xmlns="http://www.w3.org/2000/svg">
<path fill-rule="evenodd" clip-rule="evenodd" d="M9.28093 0.263184C8.43629 0.263184 7.90107 1.12798 7.86762 1.92428C7.77563 3.91074 7.71709 4.48441 6.71356 6.14551C6.43758 6.59075 6.15325 7.00174 5.85219 7.42985C5.60131 7.51548 5.09954 7.72097 4.87374 7.77235L5.18317 16.6857C5.77692 16.934 6.37905 17.0539 7.02298 17.0539H14.0561C15.0094 17.0539 15.6701 16.1891 15.7872 15.273L16.4813 9.87868C16.6235 8.76558 15.9461 7.45554 14.7502 7.45554H11.6309V3.04594C11.6309 1.67597 10.7193 0.263184 9.28093 0.263184V0.263184ZM3.17609 7.66104H1.32792C1.11885 7.66104 0.926503 7.76379 0.775972 7.92647C0.608716 8.1234 0.5 8.3974 0.5 8.7142V16.0607C0.5 16.3689 0.608716 16.6515 0.775972 16.8399C0.91814 17.0025 1.11048 17.1053 1.32792 17.1053H3.22627C3.3768 17.0967 3.50224 17.071 3.56078 17.0197C3.56915 17.0197 3.55242 17.0111 3.55242 16.9854V16.9683L3.25136 7.65248H3.17609V7.66104Z" fill="#DB2831"/>
</svg>
