<svg width="14" height="16" viewBox="0 0 14 16" stroke="#687075" fill="none" xmlns="http://www.w3.org/2000/svg" class="iconFilter" stroke-width="1"><path fill-rule="evenodd" clip-rule="evenodd" d="M7.61494 1.36841C6.94978 1.36841 6.5283 2.04943 6.50195 2.67652C6.42951 4.24086 6.38341 4.69263 5.59313 6.00074C5.3758 6.35136 5.15189 6.67502 4.9148 7.01216C4.71723 7.07959 4.32209 7.24142 4.14427 7.28188L4.38794 14.3012C4.85553 14.4967 5.3297 14.5911 5.8368 14.5911H11.3754C12.1261 14.5911 12.6464 13.9101 12.7386 13.1886L13.2852 8.94061C13.3972 8.06404 12.8637 7.03239 11.922 7.03239H9.46552V3.55983C9.46552 2.48098 8.74768 1.36841 7.61494 1.36841V1.36841ZM2.80738 7.19422H1.35194C1.18729 7.19422 1.03582 7.27513 0.917279 7.40325C0.785565 7.55833 0.699951 7.7741 0.699951 8.02359V13.8089C0.699951 14.0517 0.785565 14.2742 0.917279 14.4225C1.02924 14.5507 1.18071 14.6316 1.35194 14.6316H2.84689C2.96543 14.6248 3.06422 14.6046 3.11032 14.5641C3.1169 14.5641 3.10373 14.5574 3.10373 14.5372V14.5237L2.86665 7.18748H2.80738V7.19422Z"></path></svg>