<svg width="15" height="14" viewBox="0 0 15 14" fill="none" xmlns="http://www.w3.org/2000/svg">
<path d="M1.55469 5.37497C1.53811 5.37497 1.52221 5.36839 1.51049 5.35667C1.49877 5.34495 1.49219 5.32905 1.49219 5.31247V0.813599C1.49219 0.797023 1.49877 0.781126 1.51049 0.769405C1.52221 0.757683 1.53811 0.751099 1.55469 0.751099H6.05469C6.07126 0.751099 6.08716 0.757683 6.09888 0.769405C6.1106 0.781126 6.11719 0.797023 6.11719 0.813599V5.31247C6.11719 5.32905 6.1106 5.34495 6.09888 5.35667C6.08716 5.36839 6.07126 5.37497 6.05469 5.37497H1.55469ZM9.42969 5.37497C9.41311 5.37497 9.39721 5.36839 9.38549 5.35667C9.37377 5.34495 9.36719 5.32905 9.36719 5.31247V0.813599C9.36719 0.797022 9.37377 0.781125 9.38549 0.769405C9.39721 0.757683 9.41311 0.751099 9.42969 0.751099H13.9286C13.9451 0.751099 13.961 0.757684 13.9728 0.769404C13.9845 0.781125 13.9911 0.797021 13.9911 0.813599V5.31247C13.9911 5.32905 13.9845 5.34495 13.9728 5.35667C13.961 5.36839 13.9451 5.37497 13.9286 5.37497H9.42969ZM1.55469 13.25C1.53811 13.25 1.52221 13.2434 1.51049 13.2317C1.49877 13.2199 1.49219 13.204 1.49219 13.1875V8.68747C1.49219 8.6709 1.49877 8.655 1.51049 8.64328C1.52221 8.63156 1.53811 8.62497 1.55469 8.62497H6.05469C6.07126 8.62497 6.08716 8.63156 6.09888 8.64328C6.1106 8.655 6.11719 8.6709 6.11719 8.68747V13.1875C6.11719 13.204 6.1106 13.2199 6.09888 13.2317C6.08716 13.2434 6.07126 13.25 6.05469 13.25H1.55469ZM9.42969 13.25C9.41311 13.25 9.39721 13.2434 9.38549 13.2317C9.37377 13.2199 9.36719 13.2041 9.36719 13.1875V8.68747C9.36719 8.67089 9.37377 8.655 9.38549 8.64328C9.39721 8.63156 9.41311 8.62497 9.42969 8.62497H13.9286C13.9451 8.62497 13.961 8.63156 13.9728 8.64328L14.3122 8.30387L13.9728 8.64328C13.9845 8.655 13.9911 8.67089 13.9911 8.68747V13.1875C13.9911 13.2041 13.9845 13.2199 13.9728 13.2317C13.961 13.2434 13.9451 13.25 13.9286 13.25H9.42969Z" stroke="#687075"/>
</svg>
