<svg width="1344" height="285" viewBox="0 0 1344 285" fill="none" xmlns="http://www.w3.org/2000/svg">
    <path d="M420.93 196.484H434.915C440.027 196.484 442.93 193.581 442.93 188.47V159.497H463.213C492.021 159.497 507.029 145.185 507.029 122.674C507.029 100.163 491.694 85.6869 463.213 85.6869H420.93C415.818 85.6869 412.915 88.5902 412.915 93.7017V188.49C412.915 193.602 415.818 196.505 420.93 196.505V196.484ZM442.93 136.659V110.059H462.885C470.716 110.059 476.523 114.659 476.523 123.533C476.523 132.059 470.737 136.659 462.885 136.659H442.93ZM542.993 160.193H597.196C603.493 160.193 605.047 157.984 605.047 152.014C605.047 140.258 600.447 128.992 592.596 121.161C585.276 113.821 574.01 109.057 560.373 109.057C533.609 109.057 514.512 127.969 514.512 153.711C514.512 180.312 534.467 198.713 561.722 198.713C575.196 198.713 590.694 194.276 598.382 186.098C600.426 183.89 601.796 180.986 598.034 177.408L592.248 171.438C589.018 168.023 586.462 169.23 583.374 171.601C577.241 175.854 571.27 177.735 565.136 177.735C553.891 177.735 544.343 171.601 542.973 160.172L542.993 160.193ZM559.698 129.339C564.646 129.339 568.571 131.036 571.638 134.103C574.03 136.495 575.728 139.89 576.402 143.999H543.157C544.343 134.962 550.661 129.339 559.698 129.339ZM660.947 198.713C675.443 198.713 686.525 193.438 694.703 185.423C696.912 183.031 698.282 180.312 694.54 176.549L685.503 167.512C683.111 165.304 680.555 164.282 676.629 167.86C672.376 171.785 667.244 173.646 662.133 173.646C651.051 173.646 643.547 165.12 643.547 153.875C643.547 142.629 651.215 134.267 662.133 134.267C667.244 134.267 672.356 135.964 676.629 139.89C680.555 143.468 683.111 142.445 685.503 140.237L694.54 131.2C698.282 127.458 696.932 124.719 694.703 122.326C686.525 114.311 675.443 109.036 660.947 109.036C634.183 109.036 614.412 127.949 614.412 153.875C614.412 179.78 634.183 198.713 660.947 198.713ZM760.663 109.057C751.789 109.057 744.817 111.96 739.358 116.397V82.8244C739.358 77.7129 736.455 74.2984 731.343 74.9731L717.705 77.5289C712.757 78.3876 710.038 80.4322 710.038 85.3802V188.694C710.038 193.642 712.757 196.546 717.705 196.546H731.507C736.454 196.546 739.358 193.642 739.358 188.694V148.456C739.358 139.93 744.633 134.144 752.995 134.144C761.521 134.144 766.633 139.93 766.633 148.456V188.694C766.633 193.642 769.352 196.546 774.3 196.546H788.285C793.397 196.546 796.137 193.642 796.137 188.694V146.248C796.137 123.574 781.477 109.077 760.683 109.077L760.663 109.057ZM829.873 97.3003C839.769 97.3003 847.6 89.2854 847.6 79.5735C847.6 69.6775 839.748 61.8467 829.873 61.8467C820.161 61.8467 812.146 69.698 812.146 79.5735C812.146 89.2854 820.161 97.3003 829.873 97.3003ZM822.88 196.505H836.865C841.813 196.505 844.717 193.602 844.717 188.654V118.258C844.717 113.31 841.813 110.406 836.865 110.406H822.88C817.769 110.406 815.029 113.31 815.029 118.258V188.654C815.029 193.602 817.748 196.505 822.88 196.505ZM915.44 109.057C902.988 109.057 894.483 114.679 888.839 122.694V118.258C888.839 113.31 886.12 110.406 881.172 110.406H872.135C867.187 110.406 864.468 113.31 864.468 118.258V188.654C864.468 193.602 867.187 196.505 872.135 196.505H886.284C891.232 196.505 893.951 193.602 893.951 188.654V148.416C893.951 139.89 899.226 134.103 907.752 134.103C916.115 134.103 921.226 139.89 921.226 148.416V188.654C921.226 193.602 924.129 196.505 929.077 196.505H943.063C948.01 196.505 950.914 193.602 950.914 188.654V146.207C950.914 123.533 936.254 109.036 915.46 109.036L915.44 109.057ZM1012.44 198.549C1022.84 198.549 1034.95 196.157 1045.5 185.771C1047.19 183.89 1048.4 181.518 1045.85 178.942L1043.96 177.061C1041.76 175.016 1039.53 174.341 1036.62 177.061C1026.73 185.934 1018.73 186.445 1012.58 186.445C993.135 186.445 980.704 172.46 980.704 154.059C980.704 135.146 993.83 121.324 1012.58 121.324C1018.71 121.324 1026.73 121.836 1036.62 130.709C1039.53 133.429 1041.74 132.59 1043.96 130.709L1045.85 128.828C1048.4 126.272 1047.22 123.717 1045.5 121.999C1034.93 111.592 1022.82 109.22 1012.44 109.22C986.184 109.22 967.087 128.665 967.087 153.875C967.087 179.105 986.184 198.529 1012.44 198.529V198.549ZM1106.71 109.22C1094.77 109.22 1085.41 113.657 1079.27 121.161V79.5735C1079.27 75.9954 1077.74 73.9508 1074 74.9731L1070.42 75.8318C1067.35 76.6906 1065.82 78.224 1065.82 80.7798V191.577C1065.82 194.481 1067.52 196.525 1070.42 196.525H1074.67C1077.58 196.525 1079.27 194.481 1079.27 191.577V145.901C1079.27 130.893 1089.68 121.181 1104.34 121.181C1118.84 121.181 1128.04 130.893 1128.04 145.901V191.577C1128.04 194.481 1129.74 196.525 1132.64 196.525H1136.89C1139.8 196.525 1141.49 194.481 1141.49 191.577V144.694C1141.49 123.901 1128.2 109.241 1106.71 109.241V109.22ZM1205.92 198.549C1232.01 198.549 1251.27 179.126 1251.27 153.895C1251.27 128.665 1232.01 109.241 1205.92 109.241C1179.83 109.241 1160.57 128.685 1160.57 153.895C1160.57 179.126 1179.83 198.549 1205.92 198.549ZM1205.92 186.445C1187.33 186.445 1174.21 172.644 1174.21 153.895C1174.21 135.146 1187.5 121.345 1205.92 121.345C1224.5 121.345 1237.63 135.146 1237.63 153.895C1237.63 172.644 1224.5 186.445 1205.92 186.445ZM1339.06 110.406H1334.63C1331.72 110.406 1330.19 112.287 1330.19 115.354V161.89C1330.19 176.897 1320.8 186.609 1306.33 186.609C1292.69 186.609 1283.65 177.061 1283.65 162.912V115.354C1283.65 112.287 1282.12 110.406 1279.22 110.406H1274.78C1271.88 110.406 1270.18 112.287 1270.18 115.354V163.259C1270.18 184.401 1283.65 198.549 1303.94 198.549C1316.2 198.549 1325.24 193.786 1331.05 186.098V191.557C1331.05 194.46 1332.75 196.505 1335.65 196.505H1339.06C1341.97 196.505 1343.66 194.46 1343.66 191.557V115.354C1343.66 112.287 1341.97 110.406 1339.06 110.406Z" fill="#35383A"/>
    <path fill-rule="evenodd" clip-rule="evenodd" d="M47.7637 284.98C60.8901 284.489 85.7117 283.917 98.7563 283.099C110.37 282.363 119.877 275.411 125.377 268.725C138.606 252.655 141.182 226.749 140.364 205.179C122.658 209.677 115.052 211.108 101.537 219.879C88.3697 228.037 82.9515 231.391 74.2618 242.616C71.1745 246.603 65.3678 253.104 62.3418 257.112C60.7674 259.177 52.3232 272.201 50.7284 274.266C49.0722 276.433 48.0704 280.87 47.7637 285V284.98Z" fill="#7E1E1E"/>
    <path fill-rule="evenodd" clip-rule="evenodd" d="M0 1.92084C34.6153 19.709 61.8291 61.7257 65.0391 70.3949C67.4518 76.8559 70.6618 53.4042 75.7938 37.1904L33.2658 7.44129L1.39034 2.14574L0 1.90039L0 1.92084Z" fill="#7E1E1E"/>
    <path fill-rule="evenodd" clip-rule="evenodd" d="M203.296 55.7782C211.679 55.7782 223.169 60.583 226.85 68.9046C230.101 76.2856 228.649 80.0068 228.649 84.7503H207.814C207.814 77.1239 207.855 72.0737 192.418 72.0737C188.84 72.0737 183.668 72.7894 181.234 74.0161C176.041 76.6332 176.123 80.0068 176.123 85.2001C176.123 90.7819 184.628 91.3749 189.372 92.3359C195.301 93.5217 200.883 94.4827 206.813 95.7299C220.143 98.5515 228.199 103.459 228.199 117.812C228.199 126.011 227.34 131.695 223.987 138.033C222.781 140.302 221.881 141.12 220.184 142.817C217.485 145.516 213.989 147.499 209.941 148.869C206.506 150.035 200.208 151.65 196.058 151.752C196.058 156.721 195.158 160.769 195.158 165.329H177.493C177.534 163.509 177.82 160.483 177.963 158.561C178.147 156.291 178.392 154.676 178.392 151.752C171.032 151.752 162.383 148.992 157.946 145.946C146.66 138.135 149.87 126.972 149.87 119.611H170.705C170.705 132.451 169.539 135.007 191.069 135.007C204.461 135.007 206.015 129.221 206.015 120.511C206.015 115.113 197.694 114.459 192.705 113.457C178.536 110.615 153.959 109.224 153.959 91.0886C153.959 84.3619 153.857 79.1072 156.045 72.7894C160.216 60.767 174.426 55.3079 185.651 55.3079C185.651 50.7689 186.55 46.5161 186.55 42.1815H204.216C204.216 45.1257 203.971 46.741 203.786 48.9901L203.316 55.7577L203.296 55.7782ZM62.9536 72.5236C62.9536 86.386 61.7473 97.7132 60.725 111.024C56.922 164.163 52.8123 217.241 48.9276 270.36C48.8253 274.633 48.0075 278.743 48.0075 283.487C49.3774 283.487 56.7584 264.39 72.0726 246.725C116.236 195.711 184.792 203.747 245.394 196.488C259.216 194.832 268.274 191.5 280.848 186.674C296.039 180.459 312.458 164.736 319.88 150.096C324.275 141.407 325.891 139.301 329.285 129.18C338.71 101.025 333.108 66.8804 316.363 43.7354C301.887 23.7391 283.015 10.5309 257.785 4.51975C249.79 2.61826 238.524 0.675878 225.01 0.410078C148.521 -1.06204 46.7398 1.90265 0 1.90265C0.143123 2.00488 0.408922 2.148 0.572491 2.22978L5.62268 4.41752C27.6227 13.9454 42.6302 21.6536 54.9796 42.4473C59.3142 49.7261 62.9332 62.1983 62.9332 72.5236H62.9536Z" fill="url(#paint0_linear_230_11201)"/>
    <path fill-rule="evenodd" clip-rule="evenodd" d="M47.7637 284.98C60.8901 284.489 85.7117 283.917 98.7563 283.099C110.37 282.363 119.877 275.411 125.377 268.725C138.606 252.655 141.182 226.749 140.364 205.179C122.658 209.677 115.052 211.108 101.537 219.879C88.3697 228.037 82.9515 231.391 74.2618 242.616C71.1745 246.603 65.3678 253.104 62.3418 257.112C60.7674 259.177 52.3232 272.201 50.7284 274.266C49.0722 276.433 48.0704 280.87 47.7637 285V284.98Z" fill="#7E1E1E"/>
    <path fill-rule="evenodd" clip-rule="evenodd" d="M0 1.92084C34.6153 19.709 61.8291 61.7257 65.0391 70.3949C67.4518 76.8559 70.6618 53.4042 75.7938 37.1904L33.2658 7.44129L1.39034 2.14574L0 1.90039L0 1.92084Z" fill="#7E1E1E"/>
    <path fill-rule="evenodd" clip-rule="evenodd" d="M203.296 55.7782C211.679 55.7782 223.169 60.583 226.85 68.9046C230.101 76.2856 228.649 80.0068 228.649 84.7503H207.814C207.814 77.1239 207.855 72.0737 192.418 72.0737C188.84 72.0737 183.668 72.7894 181.234 74.0161C176.041 76.6332 176.123 80.0068 176.123 85.2001C176.123 90.7819 184.628 91.3749 189.372 92.3359C195.301 93.5217 200.883 94.4827 206.813 95.7299C220.143 98.5515 228.199 103.459 228.199 117.812C228.199 126.011 227.34 131.695 223.987 138.033C222.781 140.302 221.881 141.12 220.184 142.817C217.485 145.516 213.989 147.499 209.941 148.869C206.506 150.035 200.208 151.65 196.058 151.752C196.058 156.721 195.158 160.769 195.158 165.329H177.493C177.534 163.509 177.82 160.483 177.963 158.561C178.147 156.291 178.392 154.676 178.392 151.752C171.032 151.752 162.383 148.992 157.946 145.946C146.66 138.135 149.87 126.972 149.87 119.611H170.705C170.705 132.451 169.539 135.007 191.069 135.007C204.461 135.007 206.015 129.221 206.015 120.511C206.015 115.113 197.694 114.459 192.705 113.457C178.536 110.615 153.959 109.224 153.959 91.0886C153.959 84.3619 153.857 79.1072 156.045 72.7894C160.216 60.767 174.426 55.3079 185.651 55.3079C185.651 50.7689 186.55 46.5161 186.55 42.1815H204.216C204.216 45.1257 203.971 46.741 203.786 48.9901L203.316 55.7577L203.296 55.7782ZM62.9536 72.5236C62.9536 86.386 61.7473 97.7132 60.725 111.024C56.922 164.163 52.8123 217.241 48.9276 270.36C48.8253 274.633 48.0075 278.743 48.0075 283.487C49.3774 283.487 56.7584 264.39 72.0726 246.725C116.236 195.711 184.792 203.747 245.394 196.488C259.216 194.832 268.274 191.5 280.848 186.674C296.039 180.459 312.458 164.736 319.88 150.096C324.275 141.407 325.891 139.301 329.285 129.18C338.71 101.025 333.108 66.8804 316.363 43.7354C301.887 23.7391 283.015 10.5309 257.785 4.51975C249.79 2.61826 238.524 0.675878 225.01 0.410078C148.521 -1.06204 46.7398 1.90265 0 1.90265C0.143123 2.00488 0.408922 2.148 0.572491 2.22978L5.62268 4.41752C27.6227 13.9454 42.6302 21.6536 54.9796 42.4473C59.3142 49.7261 62.9332 62.1983 62.9332 72.5236H62.9536Z" fill="url(#paint1_linear_230_11201)"/>
    <defs>
    <linearGradient id="paint0_linear_230_11201" x1="113.507" y1="278.584" x2="112.782" y2="0.456859" gradientUnits="userSpaceOnUse">
    <stop stop-color="#8F2020"/>
    <stop offset="1" stop-color="#CD3C3C"/>
    </linearGradient>
    <linearGradient id="paint1_linear_230_11201" x1="113.507" y1="278.584" x2="112.782" y2="0.456859" gradientUnits="userSpaceOnUse">
    <stop stop-color="#8F2020"/>
    <stop offset="1" stop-color="#CD3C3C"/>
    </linearGradient>
    </defs>
    </svg>
    